<svg width="100" height="35" fill="none" xmlns="http://www.w3.org/2000/svg"><path d="M26.943 0v6.83h-9.23V35H9.23V6.83H0V0h26.943zM44.25 0c3.672 0 6.881.731 9.627 2.194 2.745 1.462 4.862 3.523 6.35 6.182 1.522 2.626 2.283 5.667 2.283 9.124 0 3.424-.76 6.465-2.282 9.124-1.489 2.659-3.622 4.72-6.401 6.182C51.082 34.27 47.889 35 44.251 35H31.2V0h13.05zm-.545 27.621c3.209 0 5.706-.88 7.492-2.642 1.786-1.762 2.68-4.255 2.68-7.479s-.894-5.734-2.68-7.528c-1.786-1.795-4.284-2.693-7.492-2.693h-4.02v20.342h4.02zm45.23 1.197h-13L73.851 35H64.97L77.573 0h9.824L100 35h-8.98l-2.085-6.182zm-2.183-6.582L82.435 9.423l-4.267 12.813h8.584z" fill="#82BA01"/></svg>