<svg width="48" height="27" fill="none" xmlns="http://www.w3.org/2000/svg"><path d="M41.21 26.288a4.112 4.112 0 11-.005-8.223 4.112 4.112 0 01.006 8.223zm0-6.724a2.612 2.612 0 10-.005 5.224 2.612 2.612 0 00.006-5.224zm-21.668 6.724a4.112 4.112 0 11-.008-8.224 4.112 4.112 0 01.008 8.224zm0-6.724a2.612 2.612 0 10-.008 5.225 2.612 2.612 0 00.008-5.225z" fill="#6701BA"/><path d="M46.62 22.926h-2.05a.75.75 0 110-1.5h1.839V17.45a3.16 3.16 0 00-.4-1.536l-4.06-7.279a.4.4 0 00-.35-.205h-5.532v13h1.786a.75.75 0 110 1.5h-2.536a.75.75 0 01-.75-.75V7.68a.75.75 0 01.75-.75H41.6a1.9 1.9 0 011.66.974l4.059 7.28c.386.693.588 1.473.589 2.266v4.19a1.289 1.289 0 01-1.287 1.287zm-30.437 0H8.992a.75.75 0 01-.75-.75v-5.768a.75.75 0 111.5 0v5.018h6.44a.75.75 0 110 1.5zm-7.191-9.179a.75.75 0 01-.75-.75V7.961a.75.75 0 011.5 0v5.04a.75.75 0 01-.75.746z" fill="#6701BA"/><path d="M35.317 22.926H22.9a.75.75 0 010-1.5h11.667V1.806H9.742v3.088a.75.75 0 11-1.5 0V1.667A1.364 1.364 0 019.605.305h25.1a1.364 1.364 0 011.362 1.362v20.51a.75.75 0 01-.75.75zm-23.36-5.768H2.438a.75.75 0 110-1.5h9.519a.75.75 0 110 1.5z" fill="#6701BA"/><path d="M19.542 13.747H6.259a.75.75 0 110-1.5h13.283a.75.75 0 010 1.5zM5.846 9.787H.659a.75.75 0 010-1.5h5.187a.75.75 0 010 1.5zm8.317-4.143H5.007a.75.75 0 110-1.5h9.156a.75.75 0 010 1.5z" fill="#6701BA"/></svg>